<?xml version="1.0" encoding="utf-8"?>
<!-- Generator: Adobe Illustrator 24.1.3, SVG Export Plug-In . SVG Version: 6.00 Build 0)  -->
<svg version="1.1" id="OBJECTS" xmlns="http://www.w3.org/2000/svg" xmlns:xlink="http://www.w3.org/1999/xlink" x="0px" y="0px"
	 viewBox="0 0 650 301.8" style="enable-background:new 0 0 650 301.8;" xml:space="preserve">
<style type="text/css">
	.st0{fill:#DF9257;}
	.st1{opacity:0.29;}
	.st2{fill:#C9C8C3;}
	.st3{fill:none;stroke:#C9C8C3;stroke-width:2.0753;stroke-miterlimit:10;}
	.st4{fill:#FFFFFF;}
	.st5{fill:#122832;}
	.st6{fill:none;stroke:#122832;stroke-width:5.9175;stroke-miterlimit:10;}
	.st7{fill:#B6613B;}
	.st8{fill:#00CED1;}
	.st9{fill:#00A09C;}
	.st10{fill:#0E162E;}
	.st11{opacity:0.33;fill:#FFFFFF;}
	.st12{fill:none;stroke:#0E162E;stroke-width:2.1559;stroke-miterlimit:10;}
	.st13{fill:none;stroke:#0E162E;stroke-width:1.6574;stroke-miterlimit:10;}
	.st14{fill:#DC143C;}
	.st15{fill:#A3135F;}
	.st16{fill:none;stroke:#FFFFFF;stroke-width:1.3108;stroke-miterlimit:10;}
	.st17{fill:#FFB701;}
	.st18{fill:none;stroke:#FFB701;stroke-width:2.6215;stroke-miterlimit:10;}
	.st19{opacity:0.61;}
	.st20{fill:none;stroke:#FFB701;stroke-width:1.4965;stroke-miterlimit:10;}
	.st21{opacity:0.22;fill:#A0A0A0;}
	.st22{fill:#FC1381;}
	.st23{fill:#009FBF;}
	.st24{fill:none;stroke:#A0A0A0;stroke-width:0.7707;stroke-miterlimit:10;}
	.st25{fill:none;stroke:#A0A0A0;stroke-width:0.7707;stroke-miterlimit:10;stroke-dasharray:5.2793,5.2793;}
	.st26{fill:none;stroke:#A0A0A0;stroke-width:0.7707;stroke-miterlimit:10;stroke-dasharray:5.4194,5.4194;}
	.st27{fill:#FFFFFF;stroke:#222221;stroke-width:1.7438;stroke-miterlimit:10;}
	.st28{fill:none;stroke:#A0A0A0;stroke-width:0.7707;stroke-miterlimit:10;stroke-dasharray:5.2314;}
</style>
<g>
	<path class="st0" d="M494.1,87.4c0,10.4,9.8,13.8,21.4,13.8s19-2.9,19-13.3s-7.4-24.1-19-24.5C497.5,62.7,494.1,77,494.1,87.4z"/>
	<g class="st1">
		<path class="st2" d="M371.5,130.4H469v-70h-74.7c-8.9,8.9-13.9,13.9-22.8,22.8V130.4z"/>
		<line class="st3" x1="471.2" y1="61.2" x2="488.3" y2="61.2"/>
		<line class="st3" x1="468.5" y1="58.2" x2="468.5" y2="42.4"/>
		<polyline class="st4" points="390.8,61.7 390.8,78.1 373.1,78.1 		"/>
	</g>
	<g>
		<g>
			<g>
				<path class="st5" d="M574.9,158.8l-83.5-3.4l-25.4,103.4l130.2,0.7l13.3-59.1C614,179.4,597.6,159.7,574.9,158.8z"/>
				<g>
					<line class="st6" x1="571.5" y1="143.4" x2="567.6" y2="157.8"/>
					<line class="st6" x1="536.5" y1="143.4" x2="532.5" y2="157.8"/>
					<g>
						<path class="st5" d="M582.4,145.8h-68.8l14.7-39.6h62.4c5.2,0,8.9,4.8,7.2,9.4l-9.8,26.4C587.3,144.2,585,145.8,582.4,145.8z"
							/>
					</g>
				</g>
				<g>
					<g>
						<g>
							<g>
								<path class="st0" d="M438.5,210.1c-11.2-6.9-31.1-18.7-31.1-18.7s-35.2-21.2-34.6-23.1s12.5,2.9,12.5,2.9
									c-0.9-1.7-11.8-7.7-11.4-8.8c0.4-1.1,14.2,5.9,14.8,5.4c0.6-0.5-13.8-7.7-12.9-9.2c0.8-1.4,15.2,5.8,16,5.4
									s-13.6-8.3-11.7-9.5c1.8-1.2,21.7,12.7,23.5,12.4c1.8-0.3-4.5-8.6-4.1-12.2c0.3-3.7,16.6,18.7,16.6,18.7
									c3.7,3,33.2,14.8,33.2,14.8L438.5,210.1z"/>
								<path class="st7" d="M401.7,166.4l5.2,9c0,0-2.4-9.1-1.8-9.8L401.7,166.4z"/>
								<path class="st0" d="M466.6,189.7c0,0,37-73,60-45.2c24.8,29.9-19.8,57.1-42.5,79.4c-6,5.9-16,6.5-22.8,1.3l-53.6-33.3
									l9.1-17.2L466.6,189.7z"/>
								<path class="st8" d="M506.4,204c-9.9-10.4-23.4-24.2-34.2-33.7c12.5-19.7,38.5-45,54.4-25.8
									C544.4,166,526.4,186.1,506.4,204z"/>
							</g>
							<g>
								<path class="st8" d="M583.2,166.3c1.3-18.4-32.7-33.3-32.7-33.3l-14.3-16.6l1.4,8.4l-21.7,21l-3.5-8.5l0.2-3.2l-3.5,3.4
									c-2.5,0.4-12.9,13.6-15.7,19.7c-4.1,9.3-5.4,21.6-5.8,28.9c-9.4,71.5-10.1,73.7-10.1,73.7h94.1
									C571.7,259.8,575.3,280.7,583.2,166.3z"/>
								<path class="st9" d="M563.8,139.9c-1-0.6-62.1,119.9-62.1,119.9h75.8c0,0,6.4-52.8,5.5-95.4
									C582.9,164.4,581.8,151,563.8,139.9z"/>
							</g>
							<g>
								<g>
									<path class="st0" d="M494.9,79c0,0-4.5,28,4.7,38.8c4.7,4.2,10.3,2.4,13.8,2.2c0.1-1.2-0.6,9.7-1.2,19.5c0,0,0,0,0,0.1
										c0.2,1.7,2.6,2.2,5.5,2.1c4.4-0.2,12.9-6,12.9-6c3.3-1.9,5.9-4.8,7.2-8.2c0,0,0-0.1,0-0.1c0.6-1.9,0.6-3.9,0-5.7l-4.8-14.2
										c0,0-1-4.6-0.8-6.1c3.5-0.4,6-5.4,4.5-8.7c-1.4-3.1-6.9-3.3-7.7-0.4c-0.9,3-3.6,2.9-3.9,0.4c-0.2-1.4,1-13.1-8.1-14.5
										c-5.4,0.4-6.7,3.9-9.5,4c-2.8,0.1-5.3-5.3-6.7-3.8C496.7,83.1,494.9,79,494.9,79z"/>
									<path class="st7" d="M535.3,95.7c-1.9-5.9-6.1-1.1-6.1-1.1L535.3,95.7z"/>
									<polygon class="st7" points="512.4,120 517.9,119.6 513.5,130 									"/>
									<g>
										<path class="st7" d="M499.7,98.7c0,0-2.5,6-2.2,5.9c1-0.1,3,0,3,0L499.7,98.7z"/>
										
											<ellipse transform="matrix(0.9996 -2.796201e-02 2.796201e-02 0.9996 -2.5476 13.9252)" class="st10" cx="496.6" cy="98.1" rx="0.8" ry="1.6"/>
										<path class="st10" d="M503.8,97.7c0,0.9-0.3,1.6-0.8,1.6c-0.5,0-0.9-0.7-0.9-1.6c0-0.9,0.3-1.6,0.8-1.6
											S503.7,96.8,503.8,97.7z"/>
										<path class="st10" d="M508.1,92c1.1,0.1,1.2-3.5-4.4-3c-1.6,0.1-2.9,1.6-2.2,2.7C502,92.4,504.1,91.6,508.1,92z"/>
										<path class="st10" d="M494,92.6c-1,0.3-2.7-2.4,0.5-3.4c2.2-0.7,3.3,1.3,2.6,2.6C496.7,92.5,495.7,92.1,494,92.6z"/>
									</g>
								</g>
							</g>
							<path class="st0" d="M545,250.9c-13.3-1.4-37.3-4-37.3-4s-47.9,0.9-48.2-1c-0.3-1.9,29.1-16.3,29.1-16.3
								c4.8,1.1,55.4-2.7,55.4-2.7L545,250.9z"/>
							<g>
								<path class="st0" d="M549.7,163.1c-0.3-6.1-9.4-26.7,3.4-29.1c13.4-2.6,53.2,35.2,44.1,98.3c-2.1,14.3-11,26.1-37.7,21.6
									l-50.5-6.9l1.5-18l49-10.4C559.4,218.6,550.7,181.2,549.7,163.1z"/>
							</g>
							<g>
								<path class="st8" d="M545.1,203.4c-2-18-3.6-30.2-4.1-39.8c-0.3-6.1-0.7-27.1,12.1-29.6c9.8-1.9,41.4,15.8,45.1,56.6
									C583.8,195.5,559.8,199.1,545.1,203.4z"/>
							</g>
						</g>
					</g>
				</g>
			</g>
			<g>
				<g>
					<g>
						<g>
							<path class="st11" d="M504.8,101.3h2.3c2.3,0,4.2-1.9,4.2-4.2v-1.2c0-2.3-1.9-4.2-4.2-4.2h-2.3c-2.3,0-4.2,1.9-4.2,4.2V97
								C500.6,99.4,502.5,101.3,504.8,101.3z"/>
							<path class="st11" d="M509.4,101.1c-0.6-0.8-1.1-1.7-1.6-2.5c-1.4-2.3-2.7-4.7-4.1-7h4.8c1.6,0,2.9,1.6,2.9,3.5v2.8
								C511.3,99.3,510.5,100.6,509.4,101.1z"/>
						</g>
						<g>
							<path class="st12" d="M504.8,101.3h2.3c2.3,0,4.2-1.9,4.2-4.2v-1.2c0-2.3-1.9-4.2-4.2-4.2h-2.3c-2.3,0-4.2,1.9-4.2,4.2V97
								C500.6,99.4,502.5,101.3,504.8,101.3z"/>
						</g>
					</g>
					<g>
						<g>
							<path class="st11" d="M494.2,101.1h0.7c1.8,0,3.3-1.5,3.3-3.3V95c0-1.8-1.5-3.3-3.3-3.3h-0.7c-1.8,0-3.3,1.5-3.3,3.3v2.9
								C491,99.7,492.5,101.1,494.2,101.1z"/>
							<path class="st11" d="M497.3,100.6c-1.6-2.9-3.3-5.8-4.9-8.6c0.2-0.1,0.5-0.2,0.8-0.2h2.8c1.2,0,2.2,1.2,2.2,2.7v4.1
								C498.2,99.3,497.9,100.1,497.3,100.6z"/>
						</g>
						<path class="st13" d="M494.2,101.1h0.7c1.8,0,3.3-1.5,3.3-3.3V95c0-1.8-1.5-3.3-3.3-3.3h-0.7c-1.8,0-3.3,1.5-3.3,3.3v2.9
							C491,99.7,492.5,101.1,494.2,101.1z"/>
					</g>
					<line class="st12" x1="500.6" y1="97.3" x2="498.4" y2="97.3"/>
				</g>
				<line class="st12" x1="527.3" y1="93.9" x2="511.4" y2="94.1"/>
			</g>
		</g>
	</g>
	<path class="st5" d="M522.8,108.8l-14.7,3.9l-3-8.1h-10l0.3,20.1C495.3,124.8,520.3,127.6,522.8,108.8z"/>
	<g>
		<g>
			<g>
				
					<rect x="434.2" y="244.4" transform="matrix(-1 -1.224647e-16 1.224647e-16 -1 936.6025 496.1387)" class="st14" width="68.2" height="7.4"/>
				<path class="st15" d="M453.8,244.4c3.4,2.4,6.8,4.9,10.1,7.4h-29.7v-7.4H453.8z"/>
				<polygon class="st14" points="349,251.8 456.4,251.8 430.5,183 323.1,183 				"/>
				<line class="st16" x1="454.5" y1="243.8" x2="346.6" y2="243.8"/>
				<path class="st4" d="M383.5,219.3c0-3.5,3-6.3,6.7-6.3c3.7,0,6.7,2.8,6.7,6.3s-3,6.3-6.7,6.3
					C386.5,225.6,383.5,222.8,383.5,219.3z"/>
			</g>
		</g>
		<g>
			<g>
				<path class="st17" d="M593.2,251L593.2,251c8.4,0,15.2-6.3,15.2-14.1v-19.7H578v19.7C578,244.6,584.8,251,593.2,251z"/>
				<path class="st17" d="M596.6,243c6-4,9.9-10,11.7-16.4v10.3c0,7.8-6.8,14.1-15.2,14.1h0c-4,0-7.6-1.4-10.3-3.8
					C587.5,247.3,592.3,245.9,596.6,243z"/>
				<ellipse class="st18" cx="577" cy="231.5" rx="11.5" ry="10.7"/>
			</g>
			<g class="st19">
				<g>
					<path class="st4" d="M594.6,213.4c2.1-2.5,3.9-5.3,5.5-8.2c1-1.9,1.9-3.9,2-6.1c0.1-2.1-0.8-4.4-2.7-5.6
						c-2.8-1.7-7-0.4-8.8,2.3c-1.8,2.7-1.7,6.1-0.8,9.2c0.9,3,2.6,5.8,3.9,8.7"/>
				</g>
				<g>
					<path class="st4" d="M588.9,214c-0.6-1-1.2-2.1-2.3-2.7c-1.1-0.6-2.8-0.3-3.2,0.7c-0.4,0.9,0.4,2,1.4,2.4
						c1,0.4,2.1,0.3,3.2,0.2"/>
				</g>
			</g>
		</g>
	</g>
	<g>
		<g>
			<g>
				<g>
					<g>
						<path class="st5" d="M354.5,145.9l18.7-29.6c0.1-0.2,0.4-0.1,0.4,0.1v25.3c0,0.1,0,0.1-0.1,0.2c-0.7,0.4-1.1,1.3-0.4,2.1
							c0,0,0,0,0.1,0.1c1.2,0.8,2.5,0,2.5-1c0-0.5-0.3-1-0.8-1.2c-0.1,0-0.1-0.1-0.1-0.2v-25.3c0-0.2,0.3-0.3,0.4-0.1l18.8,29
							c0.1,0.1,0.1,0.2,0,0.2l-9.3,18.3h-21l-9.2-17.7C354.5,146.1,354.5,146,354.5,145.9z"/>
					</g>
					<path class="st5" d="M365.1,173.1h18.2c0.9,0,1.6-0.7,1.6-1.6v-6.6c0-0.2-0.1-0.3-0.3-0.3h-20.7c-0.2,0-0.3,0.1-0.3,0.3v6.6
						C363.6,172.4,364.3,173.1,365.1,173.1z"/>
				</g>
				<g>
					<g>
						<g>
							<path class="st20" d="M403.1,83.4c0,14.8-12.9,26.8-28.9,26.8"/>
							<path class="st20" d="M345.3,137.4c0-14.8,12.9-26.8,28.9-26.8"/>
						</g>
						<g>
							
								<rect x="400.9" y="81.8" transform="matrix(-1 -1.224647e-16 1.224647e-16 -1 806.1063 167.4454)" class="st5" width="4.2" height="3.9"/>
							
								<rect x="343.5" y="134.7" transform="matrix(-1 -1.224647e-16 1.224647e-16 -1 691.3177 273.3228)" class="st5" width="4.2" height="3.9"/>
						</g>
					</g>
					<g>
						<line class="st20" x1="411.9" y1="110.4" x2="335.7" y2="110.4"/>
						<g>
							
								<rect x="372.3" y="108.8" transform="matrix(-1 -1.224647e-16 1.224647e-16 -1 748.75 221.4572)" class="st5" width="4.2" height="3.9"/>
							
								<rect x="409.9" y="108.8" transform="matrix(-1 -1.224647e-16 1.224647e-16 -1 824.0559 221.4572)" class="st5" width="4.2" height="3.9"/>
							
								<rect x="334.4" y="108.8" transform="matrix(-1 -1.224647e-16 1.224647e-16 -1 673.059 221.4572)" class="st5" width="4.2" height="3.9"/>
						</g>
					</g>
				</g>
			</g>
		</g>
		<g>
			<path class="st21" d="M591.8,78.9l-34.1,0.3c-1.2,0-2.3,0.7-2.8,1.7l-3.1,6.2c-0.2,0.3-0.7,0.2-0.7-0.1l-0.3-7.7l-0.3-30.8
				c0-3,2.6-5.5,5.8-5.5l35.2-0.3c3.2,0,5.9,2.4,5.9,5.4l0.3,25.3C597.6,76.4,595,78.9,591.8,78.9z"/>
			<path class="st22" d="M574.9,71.8l6-0.1c0.3,0,0.6-0.3,0.6-0.6l-0.1-10c0-0.3-0.3-0.6-0.6-0.5l-6,0.1c-0.3,0-0.6,0.3-0.6,0.6
				l0.1,10C574.3,71.6,574.5,71.8,574.9,71.8z"/>
			<path class="st17" d="M582.8,71.8l6.2-0.1c0.3,0,0.5-0.2,0.5-0.4l-0.1-5.8c0-0.2-0.2-0.4-0.5-0.4l-6.2,0.1
				c-0.3,0-0.5,0.2-0.5,0.4l0.1,5.8C582.3,71.6,582.5,71.8,582.8,71.8z"/>
			<path class="st23" d="M566.9,71.9l6-0.1c0.3,0,0.6-0.3,0.6-0.6l-0.2-15.9c0-0.3-0.3-0.6-0.6-0.5l-6,0.1c-0.3,0-0.6,0.3-0.6,0.6
				l0.2,15.9C566.3,71.7,566.6,71.9,566.9,71.9z"/>
			<path class="st5" d="M560,72l4.6,0c0.5,0,1-0.4,0.9-0.9l-0.2-20.2c0-0.5-0.4-0.9-1-0.9l-4.6,0c-0.5,0-1,0.4-0.9,0.9l0.2,20.2
				C559,71.6,559.5,72,560,72z"/>
		</g>
		<g>
			<g>
				<g>
					<ellipse class="st22" cx="279.7" cy="169.7" rx="17.1" ry="15.8"/>
					<ellipse class="st23" cx="303.9" cy="170.4" rx="17.1" ry="15.8"/>
					<ellipse class="st17" cx="291.3" cy="189.7" rx="17.1" ry="15.8"/>
				</g>
				<g>
					<g>
						<g>
							<polyline class="st24" points="239.5,209.8 239.5,212.4 242.1,212.4 							"/>
							<line class="st25" x1="247.4" y1="212.4" x2="339.7" y2="212.4"/>
							<polyline class="st24" points="342.4,212.4 345,212.4 345,209.8 							"/>
							<line class="st26" x1="345" y1="204.4" x2="345" y2="152.9"/>
							<polyline class="st24" points="345,150.2 345,147.6 342.4,147.6 							"/>
							<line class="st25" x1="337.1" y1="147.6" x2="244.7" y2="147.6"/>
							<polyline class="st24" points="242.1,147.6 239.5,147.6 239.5,150.2 							"/>
							<line class="st26" x1="239.5" y1="155.6" x2="239.5" y2="207.1"/>
						</g>
					</g>
					<g>
						<g>
							
								<rect x="341.4" y="146" transform="matrix(-1 -1.224647e-16 1.224647e-16 -1 687.6908 296.6679)" class="st27" width="4.9" height="4.6"/>
							
								<rect x="237.2" y="146" transform="matrix(-1 -1.224647e-16 1.224647e-16 -1 479.4253 296.6679)" class="st27" width="4.9" height="4.6"/>
						</g>
						<g>
							
								<rect x="341.4" y="208.8" transform="matrix(-1 -1.224647e-16 1.224647e-16 -1 687.6908 422.1251)" class="st27" width="4.9" height="4.6"/>
							
								<rect x="237.2" y="208.8" transform="matrix(-1 -1.224647e-16 1.224647e-16 -1 479.4253 422.1251)" class="st27" width="4.9" height="4.6"/>
						</g>
					</g>
				</g>
			</g>
			<path class="st5" d="M266.1,216.7l3.3,8.9c0.3,0.9,1.6,0.8,1.9,0l6.5-19.5c0.2-0.7-0.5-1.4-1.3-1.2l-21.1,6.6
				c-0.9,0.3-0.9,1.5,0,1.8l10,2.9C265.8,216.2,266,216.5,266.1,216.7z"/>
		</g>
	</g>
	<g>
		<g>
			<path class="st23" d="M293.2,95.5c0-3.2,2.8-5.9,6.3-5.9c3.5,0,6.3,2.6,6.3,5.8c0,3.2-2.8,5.9-6.3,5.9
				C296,101.4,293.2,98.7,293.2,95.5z"/>
			
				<rect x="273" y="81.7" transform="matrix(-1 1.037208e-03 -1.037208e-03 -1 572.5657 177.3674)" class="st28" width="26.5" height="14.2"/>
		</g>
		<g>
			<path class="st17" d="M604.4,158.7c0-2.4,2.1-4.4,4.7-4.4c2.6,0,4.7,2,4.7,4.4c0,2.4-2.1,4.4-4.7,4.4
				C606.5,163.1,604.4,161.1,604.4,158.7z"/>
			
				<rect x="607.7" y="125.5" transform="matrix(-1 1.037574e-03 -1.037574e-03 -1 1233.7992 283.4861)" class="st28" width="18.2" height="33.2"/>
		</g>
	</g>
	<path class="st4" d="M497.2,106.8l7.5-0.6c0,0-0.8,3.3-4.1,3.6C497.9,110.1,497.2,106.8,497.2,106.8z"/>
</g>
<rect y="250.5" class="st17" width="685.9" height="12.2"/>
</svg>
