<?xml version="1.0" encoding="utf-8"?>
<!-- Generator: Adobe Illustrator 24.1.3, SVG Export Plug-In . SVG Version: 6.00 Build 0)  -->
<svg version="1.1" id="Layer_1" xmlns="http://www.w3.org/2000/svg" xmlns:xlink="http://www.w3.org/1999/xlink" x="0px" y="0px"
	 viewBox="0 0 42.69 39.79" style="enable-background:new 0 0 42.69 39.79;" xml:space="preserve">
<path d="M8.59,38.21c0.19-0.45,0.37-0.88,0.56-1.34c0.96,0.37,1.92,0.51,2.92,0.44c2.25-0.17,3.96-1.23,5.09-3.14
	c0.96-1.63,0.67-1.43,2.42-1.42c1.48,0.01,2.97,0.06,4.45,0.06c0.23,0,0.49-0.11,0.69-0.25c0.42-0.3,0.8-0.64,1.19-0.97
	c0.37-0.3,0.65-0.32,1.04-0.02c0.34,0.26,0.68,0.52,1.01,0.8c0.18,0.15,0.3,0.15,0.48-0.01c0.29-0.27,0.6-0.53,0.91-0.78
	c0.41-0.32,0.67-0.3,1.06,0.05c0.15,0.13,0.28,0.28,0.43,0.42c0.13,0.13,0.27,0.25,0.43,0.4c0.34-0.28,0.67-0.56,1-0.82
	c0.5-0.38,0.72-0.37,1.22,0.01c0.21,0.17,0.42,0.35,0.62,0.53c0.21,0.19,0.4,0.19,0.58-0.04c0.24-0.3,0.5-0.59,0.71-0.91
	c0.06-0.09,0.04-0.31-0.03-0.4c-0.4-0.5-0.81-0.99-1.26-1.45c-0.14-0.14-0.39-0.23-0.6-0.23c-2.6-0.02-5.2-0.03-7.8-0.04
	c-2.31-0.01-4.63-0.02-6.94,0c-0.57,0.01-0.94-0.16-1.19-0.69c-0.59-1.22-1.46-2.22-2.58-2.97c-2.17-1.45-4.4-1.45-6.66-0.22
	c-0.61,0.33-0.6,0.35-0.98-0.22c-0.13-0.19-0.25-0.38-0.43-0.65c0.48-0.27,0.92-0.57,1.41-0.79c1.31-0.58,2.69-0.82,4.13-0.64
	c1.87,0.23,3.4,1.11,4.69,2.43c0.55,0.57,0.99,1.25,1.45,1.89c0.19,0.27,0.37,0.4,0.72,0.4c4.84,0,9.68,0.02,14.52,0.03
	c0.47,0,0.85,0.13,1.16,0.5c0.65,0.78,1.32,1.54,1.98,2.31c0.27,0.31,0.32,0.63,0.05,0.97c-0.67,0.84-1.33,1.68-2,2.51
	c-0.26,0.32-0.59,0.33-0.91,0.1c-0.31-0.22-0.63-0.45-0.9-0.73c-0.28-0.28-0.48-0.26-0.75,0c-0.25,0.25-0.54,0.47-0.83,0.68
	c-0.41,0.3-0.64,0.27-1.02-0.07c-0.05-0.05-0.11-0.09-0.16-0.14c-0.68-0.68-0.68-0.68-1.4-0.08c-0.1,0.08-0.2,0.16-0.3,0.24
	c-0.44,0.35-0.65,0.35-1.1,0.01c-0.31-0.23-0.61-0.47-0.91-0.72c-0.21-0.18-0.4-0.2-0.6,0c-0.02,0.02-0.05,0.04-0.06,0.06
	c-0.67,0.8-1.56,0.94-2.54,0.92c-1.41-0.03-2.83,0.01-4.24-0.01c-0.37-0.01-0.56,0.13-0.74,0.44c-1.22,2.11-3.01,3.5-5.41,3.98
	C11.63,38.94,10.09,38.84,8.59,38.21z"/>
<path d="M26.1,13.31c0-4.05,0-8.02,0-12.04c0.18-0.01,0.34-0.03,0.51-0.03c2.06,0,4.11-0.02,6.17,0.02
	c2.14,0.05,3.11,0.98,3.55,2.65c0.39,1.51,0.34,2.98-0.72,4.25c-0.68,0.82-1.6,1.18-2.63,1.26c-0.91,0.07-1.82,0.1-2.73,0.1
	c-0.39,0-0.53,0.11-0.52,0.51c0.02,1.07,0.01,2.14,0.01,3.27c-0.6,0-1.2,0-1.79,0C27.34,13.31,26.74,13.31,26.1,13.31z M29.73,5.46
	C29.73,5.46,29.73,5.46,29.73,5.46c0.01,0.33,0.02,0.66,0,0.98c-0.03,0.36,0.1,0.48,0.46,0.45c0.58-0.05,1.16-0.05,1.75-0.07
	c0.83-0.02,1.47-0.58,1.49-1.33c0.02-0.8-0.56-1.4-1.43-1.44c-0.63-0.02-1.25,0-1.88-0.03c-0.31-0.01-0.4,0.13-0.4,0.41
	C29.73,4.77,29.73,5.12,29.73,5.46z"/>
<path d="M24.23,5.56c-0.95,0-1.93,0.01-2.91-0.01c-0.1,0-0.25-0.18-0.29-0.3c-0.32-1.04-1.05-1.53-2.11-1.54
	c-1.08-0.02-1.85,0.52-2.22,1.5c-0.59,1.53-0.57,3.07,0.15,4.56c0.14,0.29,0.41,0.57,0.7,0.72c1.22,0.63,2.99,0.47,3.54-1.44
	c0.15-0.51,0.38-0.63,0.87-0.59c0.72,0.06,1.45,0.07,2.18,0.09c0.25,0.01,0.38,0.09,0.34,0.36c-0.26,2.02-1.32,3.79-3.35,4.33
	c-1.88,0.5-3.79,0.52-5.58-0.43c-1.34-0.71-2.16-1.89-2.52-3.34C12.6,7.72,12.59,6,13.25,4.32c0.61-1.55,1.74-2.53,3.33-2.99
	c1.48-0.43,2.96-0.36,4.44-0.03c0.9,0.2,1.61,0.71,2.16,1.44c0.54,0.72,0.92,1.5,1.1,2.39c0.01,0.07,0.02,0.14,0.02,0.21
	C24.3,5.36,24.28,5.4,24.23,5.56z"/>
<path d="M11.18,13.25c-1.2,0-2.35,0-3.51,0c0-4.03,0-8.04,0-12.07c1.18,0,2.33,0,3.51,0C11.18,5.21,11.18,9.22,11.18,13.25z"/>
<path d="M7.72,14.3c0.33,0,0.66,0,0.98,0c1.3,0.02,2.6,0.04,3.89,0.06c0.75,0.02,1.6,0.61,1.72,1.31c0.16,0.88,0.12,1.41-0.77,1.99
	c-0.11,0.07-0.2,0.15-0.37,0.27c0.2,0.09,0.34,0.14,0.49,0.21c0.87,0.42,1.21,1.1,1.04,2.12c-0.14,0.86-0.87,1.54-1.8,1.62
	c-0.47,0.04-0.94,0.07-1.41,0.08c-1.15,0.03-2.31,0.05-3.46,0.08c-0.22,0.01-0.39-0.02-0.39-0.31c0.01-2.43,0.01-4.86,0.01-7.28
	C7.66,14.42,7.68,14.39,7.72,14.3z M9.99,20.47c0.4,0,0.76,0.02,1.11,0c0.28-0.02,0.57-0.04,0.84-0.12c0.4-0.12,0.53-0.45,0.5-0.84
	c-0.03-0.4-0.26-0.64-0.64-0.69c-0.51-0.06-1.02-0.06-1.53-0.1c-0.23-0.02-0.29,0.08-0.29,0.3C10,19.5,9.99,19.98,9.99,20.47z
	 M10.76,17.38c0.24-0.02,0.49-0.01,0.72-0.05c0.46-0.08,0.64-0.31,0.66-0.76c0.01-0.43-0.2-0.67-0.61-0.74
	c-0.24-0.04-0.48-0.04-0.72-0.05c-0.82-0.01-0.82-0.01-0.81,0.81C10,17.49,9.89,17.36,10.76,17.38z"/>
<path d="M19.35,17.97c0.2-0.73,0.54-1.18,1.18-1.37c1.13-0.33,2.28-0.33,3.42-0.07c0.74,0.17,1.18,0.68,1.25,1.45
	c0.05,0.61,0.04,1.23,0.07,1.84c0.03,0.71,0.06,1.42,0.1,2.17c-0.49,0-1.04,0.04-1.59-0.02c-0.16-0.02-0.29-0.33-0.47-0.55
	c-0.06,0.03-0.17,0.08-0.27,0.15c-0.81,0.6-1.72,0.64-2.65,0.47c-0.62-0.11-1.14-0.7-1.17-1.26c-0.05-0.87,0.2-1.35,0.97-1.59
	c0.88-0.28,1.79-0.46,2.68-0.71c0.15-0.04,0.39-0.26,0.37-0.33c-0.06-0.2-0.19-0.47-0.37-0.53c-0.54-0.21-1.06-0.15-1.47,0.33
	c-0.06,0.07-0.15,0.17-0.22,0.16C20.59,18.07,19.99,18.02,19.35,17.97z M23.26,19.3c-0.58,0.2-1.14,0.37-1.68,0.59
	c-0.28,0.11-0.4,0.36-0.33,0.67c0.07,0.32,0.28,0.48,0.6,0.51C22.76,21.15,23.35,20.46,23.26,19.3z"/>
<path d="M31.02,17.92c-0.54,0-1.01,0.01-1.47-0.01c-0.11,0-0.25-0.07-0.32-0.16c-0.32-0.43-0.77-0.41-1.2-0.32
	c-0.15,0.03-0.33,0.24-0.36,0.39c-0.02,0.11,0.15,0.34,0.28,0.39c0.34,0.13,0.71,0.18,1.07,0.27c0.32,0.08,0.64,0.13,0.95,0.24
	c0.62,0.23,1.05,0.66,1.11,1.33c0.06,0.76-0.23,1.4-0.94,1.72c-0.4,0.18-0.87,0.28-1.31,0.31c-0.58,0.03-1.17-0.01-1.74-0.11
	c-0.83-0.15-1.24-0.74-1.38-1.6c0.61,0,1.19-0.01,1.76,0.01c0.09,0,0.2,0.14,0.27,0.23c0.33,0.45,1.06,0.62,1.52,0.31
	c0.15-0.1,0.29-0.34,0.29-0.51c0-0.13-0.22-0.33-0.38-0.37c-0.64-0.19-1.3-0.31-1.95-0.48c-0.93-0.25-1.43-0.83-1.41-1.59
	c0.03-0.74,0.63-1.41,1.55-1.51c0.75-0.08,1.53-0.04,2.29,0.04C30.42,16.58,30.75,17.18,31.02,17.92z"/>
<path d="M34.72,14.32c0.69,0,1.32,0,1.99,0c0.01,0.14,0.03,0.26,0.03,0.39c0,2.27-0.01,4.54,0.01,6.81c0,0.38-0.1,0.51-0.48,0.49
	c-0.41-0.03-0.83,0.01-1.24-0.02c-0.11-0.01-0.3-0.19-0.3-0.29C34.72,19.25,34.72,16.81,34.72,14.32z"/>
<path d="M17.44,21.99c-0.64,0-1.23,0.01-1.83-0.01c-0.09,0-0.23-0.17-0.24-0.26c-0.01-1.71-0.01-3.42-0.01-5.2
	c0.6,0,1.18-0.01,1.76,0.01c0.06,0,0.14,0.15,0.16,0.24c0.03,0.17,0.01,0.35,0.01,0.52c0.04,0,0.08,0.01,0.12,0.01
	c0.05-0.07,0.11-0.14,0.16-0.22c0.45-0.67,0.96-0.85,1.73-0.64c0.29,0.08,0.43,0.21,0.25,0.51c-0.06,0.11-0.13,0.23-0.16,0.35
	c-0.13,0.49-0.39,0.71-0.94,0.64c-0.48-0.06-0.84,0.37-0.89,1c-0.07,0.88-0.07,1.76-0.1,2.65C17.45,21.72,17.45,21.83,17.44,21.99z"
	/>
<path d="M33.81,21.99c-0.61,0-1.18,0.01-1.74-0.01c-0.09,0-0.24-0.17-0.24-0.26c-0.01-1.65-0.01-3.31,0-4.96
	c0-0.08,0.13-0.23,0.21-0.24c0.58-0.02,1.16-0.01,1.77-0.01C33.81,18.35,33.81,20.14,33.81,21.99z"/>
<path d="M7.97,33.73c-0.21-0.09-0.37-0.16-0.48-0.21c0.04-0.17,0.14-0.35,0.09-0.45c-0.04-0.09-0.26-0.12-0.4-0.13
	c-0.47-0.02-0.47-0.01-0.66-0.3c0.12-0.25,0.22-0.45,0.32-0.65c-0.31-0.16-0.73,0.09-0.72-0.49c1.74,0,3.48,0,5.22,0
	c0.02,0.05,0.05,0.1,0.07,0.15c-0.11,0.08-0.21,0.18-0.32,0.25c-0.12,0.08-0.37,0.15-0.37,0.21c0.01,0.16,0.13,0.31,0.26,0.56
	c-0.06,0.26-0.36,0.27-0.69,0.27c-0.14,0-0.33,0.04-0.39,0.14c-0.05,0.08,0.05,0.26,0.09,0.44c-0.1,0.04-0.25,0.1-0.38,0.15
	c-0.31-0.27,0.25-0.96-0.56-0.92C9.03,32.51,9.02,32.29,9,32.03C8.83,32.02,8.68,32.01,8.49,32c-0.02,0.26-0.04,0.49-0.05,0.74
	c-0.13,0.03-0.25,0.05-0.39,0.08C8.02,33.12,8,33.41,7.97,33.73z"/>
<path d="M6.12,30.57c0.12-0.05,0.23-0.14,0.36-0.16c0.5-0.07,0.5-0.07,0.45-0.59c-0.12-0.02-0.26-0.05-0.4-0.08
	c0.1-0.36,0.38-0.37,0.67-0.36c0.14,0,0.36-0.03,0.4-0.11c0.05-0.11-0.04-0.29-0.08-0.46c0.11-0.04,0.25-0.09,0.46-0.17
	c0.02,0.31,0.03,0.57,0.05,0.86c0.13,0.04,0.26,0.07,0.42,0.12c0,0.23,0,0.45,0,0.69c0.2,0,0.36,0,0.54,0
	c0.01-0.25,0.03-0.47,0.04-0.71c0.71,0,0.33-0.58,0.5-0.9c0.14,0.04,0.28,0.08,0.42,0.12c-0.05,0.17-0.11,0.34-0.16,0.5
	c0.39,0.23,0.92-0.16,1.15,0.44c-0.44-0.03-0.53,0.21-0.41,0.57c0.27,0.06,0.55,0.13,0.88,0.2c-0.1,0.12-0.12,0.15-0.14,0.16
	c-1.02,0.07-2.05,0.18-3.08,0.2c-0.5,0.01-1-0.12-1.5-0.18c-0.18-0.02-0.37,0-0.55,0C6.16,30.66,6.14,30.62,6.12,30.57z"/>
<path d="M33.78,14.33c0.02,0.05,0.04,0.07,0.04,0.1c0.11,1.26,0.11,1.26-1.13,1.26c-0.28,0-0.56,0-0.85,0c0-0.49,0-0.91,0-1.36
	C32.49,14.33,33.13,14.33,33.78,14.33z"/>
</svg>
