<?xml version="1.0" encoding="utf-8"?>
<!-- Generator: Adobe Illustrator 24.1.3, SVG Export Plug-In . SVG Version: 6.00 Build 0)  -->
<svg version="1.1" id="Layer_1" xmlns="http://www.w3.org/2000/svg" xmlns:xlink="http://www.w3.org/1999/xlink" x="0px" y="0px"
	 viewBox="0 0 42.69 39.79" style="enable-background:new 0 0 42.69 39.79;" xml:space="preserve">
<g>
	<path d="M18.01,20.18c0.49-0.33,0.99-0.66,1.49-1c1.24-0.84,2.48-1.67,3.73-2.51c0.13-0.09,0.17-0.15,0.11-0.32
		c-0.58-1.46-0.45-2.86,0.41-4.19c0.03-0.04,0.06-0.09,0.09-0.15c-0.84-0.8-1.67-1.6-2.5-2.4c-2.05,1.6-4.8,1.07-6.2-0.69
		c-1.37-1.72-1.27-4.16,0.26-5.8c1.47-1.57,3.94-1.79,5.73-0.54c1.72,1.2,2.59,3.88,1.02,6.17c0.83,0.8,1.67,1.6,2.51,2.41
		c1.17-0.86,2.46-1.13,3.86-0.77c1.07,0.28,1.92,0.91,2.53,1.83c1.22,1.85,0.86,4.31-0.82,5.76c-1.68,1.44-4.44,1.49-6.18-0.44
		c-0.29,0.19-0.58,0.39-0.87,0.58c-1.44,0.97-2.88,1.95-4.33,2.91c-0.16,0.11-0.18,0.19-0.1,0.37c1.12,2.59-0.53,5.61-3.32,6.05
		c-2.42,0.38-4.64-1.17-5.06-3.58c-0.45-2.57,1.34-4.76,3.64-5.1c1.47-0.22,2.75,0.2,3.82,1.25c0.04,0.04,0.08,0.08,0.13,0.12
		C17.97,20.16,17.99,20.17,18.01,20.18z"/>
	<path d="M36.19,38.01c-0.55,0-1.09,0-1.66,0c0.05-0.22,0.09-0.43,0.14-0.63c0.34-1.46,0.68-2.91,1.01-4.37
		c0.03-0.13,0.08-0.17,0.21-0.16c0.49,0.01,0.98,0,1.49,0c-0.01,0.11-0.03,0.19-0.04,0.26c0.29-0.1,0.58-0.25,0.88-0.31
		c0.72-0.13,1.4-0.05,1.94,0.52c0.55,0.59,0.61,1.52,0.16,2.3c-0.48,0.84-1.25,1.17-2.18,1.18c-0.56,0.01-1.07-0.14-1.53-0.54
		C36.46,36.86,36.32,37.43,36.19,38.01z M38.86,34.7c0-0.45-0.19-0.7-0.57-0.78c-0.14-0.03-0.29-0.04-0.43-0.03
		c-0.6,0.05-1.02,0.54-0.93,1.12c0.02,0.16,0.12,0.35,0.24,0.44c0.35,0.26,0.75,0.26,1.13,0.08C38.68,35.36,38.84,35.03,38.86,34.7z
		"/>
	<path d="M1.49,36.69c0.17-0.74,0.33-1.46,0.49-2.18c0.2-0.9,0.41-1.81,0.61-2.71c0.04-0.17,0.09-0.23,0.28-0.23
		c1.12,0.01,2.25,0.01,3.37,0.02c0.35,0,0.69,0.08,0.99,0.28c0.53,0.34,0.73,0.93,0.55,1.62c-0.21,0.79-0.82,1.3-1.7,1.34
		c-0.72,0.04-1.45,0.03-2.18,0.03c-0.17,0-0.23,0.05-0.27,0.22c-0.1,0.49-0.22,0.98-0.34,1.47c-0.01,0.05-0.08,0.14-0.12,0.14
		C2.62,36.69,2.06,36.69,1.49,36.69z M3.95,33.72c0.5,0,0.96,0,1.43,0c0.12,0,0.24-0.02,0.34-0.06c0.24-0.09,0.38-0.36,0.33-0.6
		c-0.04-0.2-0.18-0.33-0.42-0.33c-0.45-0.01-0.9-0.01-1.35,0c-0.05,0-0.12,0.06-0.13,0.1C4.08,33.11,4.02,33.4,3.95,33.72z"/>
	<path d="M21.89,33.22c0.12-0.49,0.24-0.95,0.33-1.41c0.04-0.2,0.12-0.25,0.31-0.24c0.46,0.01,0.93,0,1.43,0
		c-0.05,0.23-0.09,0.44-0.14,0.64c-0.33,1.43-0.67,2.86-1,4.29c-0.03,0.14-0.08,0.18-0.22,0.17c-0.49-0.01-0.98,0-1.48,0
		c0.01-0.1,0.02-0.18,0.03-0.29c-0.41,0.28-0.84,0.4-1.31,0.4c-1.78,0-2.29-1.53-1.74-2.72c0.37-0.82,1.06-1.21,1.93-1.31
		C20.68,32.69,21.31,32.78,21.89,33.22z M20.71,33.85c-0.45,0-0.8,0.2-0.98,0.56c-0.26,0.52-0.07,1.08,0.42,1.24
		c0.61,0.2,1.19-0.11,1.37-0.72C21.71,34.29,21.37,33.85,20.71,33.85z"/>
	<path d="M29.38,35.1c-1.25,0-2.48,0-3.73,0c0.03,0.29,0.17,0.48,0.41,0.59c0.41,0.19,0.82,0.18,1.21-0.09
		c0.07-0.05,0.18-0.09,0.27-0.09c0.5,0.02,0.99,0.05,1.49,0.08c0.03,0,0.06,0.01,0.11,0.02c-0.13,0.31-0.35,0.53-0.62,0.7
		c-0.46,0.29-0.97,0.4-1.51,0.45c-0.58,0.05-1.15,0.04-1.71-0.13c-0.75-0.22-1.29-0.67-1.41-1.48c-0.12-0.79,0.21-1.4,0.83-1.87
		c0.39-0.29,0.84-0.45,1.32-0.5c0.65-0.07,1.3-0.09,1.92,0.12C29.05,33.28,29.42,34.04,29.38,35.1z M27.7,34.35
		c-0.08-0.38-0.42-0.59-0.95-0.58c-0.5,0-0.89,0.24-0.96,0.58C26.42,34.35,27.05,34.35,27.7,34.35z"/>
	<path d="M14.39,36.79c-0.52-0.02-1.03-0.07-1.53-0.26c-1.31-0.5-1.41-2.29-0.49-3.07c0.45-0.38,0.96-0.59,1.54-0.67
		c0.72-0.1,1.45-0.11,2.16,0.09c0.72,0.21,1.24,0.63,1.34,1.42c0.1,0.76-0.17,1.38-0.78,1.84C15.98,36.65,15.2,36.78,14.39,36.79z
		 M14.7,33.76c-0.61,0-1.04,0.31-1.18,0.85c-0.15,0.55,0.17,1.05,0.73,1.12c0.22,0.02,0.45,0.01,0.66-0.04
		c0.5-0.13,0.84-0.68,0.76-1.2C15.59,34.03,15.24,33.76,14.7,33.76z"/>
	<path d="M34.71,34.01c-0.52,0.02-1.04,0.05-1.57,0.07c-0.06-0.3-0.28-0.38-0.54-0.41c-0.17-0.02-0.35-0.02-0.53,0
		c-0.16,0.02-0.33,0.09-0.33,0.28c0,0.19,0.17,0.23,0.32,0.26c0.4,0.07,0.81,0.13,1.22,0.21c0.15,0.03,0.31,0.07,0.46,0.11
		c0.36,0.11,0.6,0.34,0.68,0.72c0.08,0.4-0.03,0.74-0.34,1.01c-0.33,0.29-0.74,0.42-1.16,0.48c-0.74,0.11-1.47,0.13-2.2-0.06
		c-0.25-0.07-0.51-0.18-0.73-0.32c-0.3-0.18-0.44-0.51-0.42-0.85c0.56-0.02,1.12-0.05,1.68-0.07c0.07,0.28,0.28,0.37,0.53,0.39
		c0.21,0.02,0.43,0.02,0.64,0c0.15-0.01,0.26-0.11,0.26-0.27c0-0.16-0.12-0.22-0.26-0.25c-0.43-0.09-0.87-0.17-1.3-0.27
		c-0.18-0.04-0.35-0.1-0.51-0.19c-0.6-0.31-0.72-1.02-0.24-1.49c0.19-0.19,0.45-0.35,0.71-0.42c0.83-0.24,1.69-0.24,2.54-0.07
		c0.12,0.02,0.24,0.07,0.35,0.12C34.41,33.17,34.7,33.47,34.71,34.01z"/>
	<path d="M11.59,32.77c-0.01,0.08-0.03,0.15-0.04,0.21c-0.1,0.42-0.2,0.84-0.3,1.27c-0.17-0.02-0.32-0.05-0.48-0.05
		c-0.6-0.03-0.88,0.16-1.02,0.74c-0.14,0.53-0.25,1.07-0.38,1.6c-0.01,0.05-0.08,0.14-0.12,0.14c-0.52,0.01-1.03,0.01-1.58,0.01
		c0.3-1.29,0.59-2.56,0.88-3.83c0.56,0,1.1,0,1.65,0c-0.03,0.18-0.07,0.34-0.11,0.57C10.53,32.96,10.98,32.67,11.59,32.77z"/>
</g>
</svg>
