<?xml version="1.0" encoding="utf-8"?>
<!-- Generator: Adobe Illustrator 24.1.3, SVG Export Plug-In . SVG Version: 6.00 Build 0)  -->
<svg version="1.1" id="Layer_1" xmlns="http://www.w3.org/2000/svg" xmlns:xlink="http://www.w3.org/1999/xlink" x="0px" y="0px"
	 viewBox="0 0 24 24" style="enable-background:new 0 0 24 24;" xml:space="preserve">
<style type="text/css">
	.st0{fill:#333333;}
</style>
<path class="st0" d="M12.21,0.71c-6.35,0-11.5,5.15-11.5,11.5s5.15,11.5,11.5,11.5s11.5-5.15,11.5-11.5S18.56,0.71,12.21,0.71z
	 M12.21,22.31c-5.57,0-10.1-4.53-10.1-10.1s4.53-10.1,10.1-10.1s10.1,4.53,10.1,10.1S17.78,22.31,12.21,22.31z"/>
<g>
	<path class="st0" d="M6.74,12.91L5.6,16.03H4.12l3.75-9.92h1.71l3.76,9.92h-1.52l-1.18-3.12H6.74z M10.35,11.91L9.26,9.05
		C9.02,8.4,8.86,7.81,8.69,7.24H8.66C8.5,7.82,8.33,8.43,8.11,9.04l-1.09,2.87H10.35z"/>
</g>
<g>
</g>
<rect x="13.71" y="10.88" class="st0" width="6.25" height="1.41"/>
<rect x="16.13" y="8.46" class="st0" width="1.41" height="6.25"/>
</svg>
