<?xml version="1.0" encoding="utf-8"?>
<!-- Generator: Adobe Illustrator 24.1.3, SVG Export Plug-In . SVG Version: 6.00 Build 0)  -->
<svg version="1.1" id="Layer_1" xmlns="http://www.w3.org/2000/svg" xmlns:xlink="http://www.w3.org/1999/xlink" x="0px" y="0px"
	 viewBox="0 0 24 24" style="enable-background:new 0 0 24 24;" xml:space="preserve">
<style type="text/css">
	.st0{fill:#333333;}
</style>
<path class="st0" d="M21.63,22.81H2.6c-1.11,0-2.01-0.9-2.01-2.01c0-0.31,0.19-0.79,0.31-1.05L10.3,3.49c0.57-0.91,1.3-1.1,1.82-1.1
	c0.52,0,1.27,0.19,1.83,1.11l9.38,16.25c0.12,0.26,0.31,0.74,0.31,1.05C23.63,21.91,22.73,22.81,21.63,22.81z M11.26,4.2L1.97,20.3
	c-0.07,0.16-0.17,0.44-0.18,0.53c0,0.43,0.36,0.79,0.81,0.79h19.03c0.44,0,0.81-0.36,0.81-0.81c-0.01-0.06-0.1-0.32-0.19-0.54
	L12.92,4.13c-0.16-0.27-0.38-0.54-0.8-0.54c-0.42,0-0.64,0.27-0.8,0.54L11.26,4.2z"/>
<g>
	<path class="st0" d="M11.19,17.46c0-0.57,0.38-0.98,0.93-0.98c0.55,0,0.91,0.41,0.92,0.98c0,0.54-0.36,0.97-0.92,0.97
		C11.56,18.42,11.18,18,11.19,17.46z M11.58,15.22l-0.22-7.51h1.51l-0.22,7.51H11.58z"/>
</g>
</svg>
