<?xml version="1.0" encoding="utf-8"?>
<!-- Generator: Adobe Illustrator 24.1.3, SVG Export Plug-In . SVG Version: 6.00 Build 0)  -->
<svg version="1.1" id="Layer_1" xmlns="http://www.w3.org/2000/svg" xmlns:xlink="http://www.w3.org/1999/xlink" x="0px" y="0px"
	 viewBox="0 0 512 97" style="enable-background:new 0 0 512 97;" xml:space="preserve">
<style type="text/css">
	.st0{fill:#FFFFFF;}
	.st1{fill:#ED1C24;}
</style>
<path class="st0" d="M3.85,87.72c0-12.79,0-25.38,0-38.17c4.85,0,9.64,0,14.43,0c0.02-0.11,0.03-0.23,0.05-0.34
	c-0.44-0.15-0.88-0.32-1.33-0.46C8.27,45.95,2.97,37.7,3.85,28.3c0.8-8.48,7.83-15.54,16.59-16.64c0.89-0.11,1.78-0.21,2.67-0.21
	c18.32-0.01,36.64-0.01,54.96-0.01c0.56,0,1.11,0,1.8,0c0,12.74,0,25.37,0,38.16c-4.94,0-9.84,0-14.74,0
	c-0.02,0.1-0.04,0.2-0.06,0.3c0.48,0.17,0.96,0.34,1.45,0.49c9.17,2.9,14.77,11.89,13.25,21.3c-1.49,9.29-9.45,16.02-18.95,16.02
	c-18.32,0-36.64,0-54.96,0C5.26,87.72,4.65,87.72,3.85,87.72z"/>
<path class="st1" d="M89.55,87.56c0-0.84,0-1.44,0-2.03c0-21.17,0.1-42.35-0.06-63.52c-0.05-6.2,4.28-10.58,10.6-10.53
	c15.4,0.14,30.81-0.01,46.21,0.07c7.63,0.04,13.41,3.47,17.13,10.17c1.43,2.58,2.13,5.39,2.13,8.37c-0.01,6.67,0.01,13.33-0.01,20
	c-0.02,9.64-7.99,18.08-17.59,18.4c-6.15,0.21-12.32,0.04-18.48,0.14c-1.18,0.02-2.45,0.32-3.5,0.85
	c-11.58,5.72-23.13,11.52-34.69,17.29C90.8,87,90.3,87.22,89.55,87.56z"/>
<g>
	<g>
		<path class="st0" d="M189.2,55.25l4.53-8.64c1.73,1.53,3.34,2.62,4.83,3.28c1.49,0.66,2.99,0.98,4.5,0.98s2.75-0.37,3.72-1.12
			c0.97-0.75,1.46-1.76,1.46-3.04c0-0.77-0.23-1.4-0.67-1.91c-0.45-0.51-1.01-0.94-1.67-1.29c-0.67-0.35-1.37-0.64-2.1-0.87
			c-0.74-0.24-1.39-0.45-1.97-0.63c-1.33-0.44-2.66-0.87-3.99-1.31c-1.33-0.44-2.51-1.05-3.53-1.83c-1.03-0.78-1.86-1.84-2.51-3.17
			c-0.65-1.33-0.97-3.11-0.97-5.33c0-2.11,0.35-4.02,1.05-5.71c0.7-1.7,1.67-3.14,2.91-4.35c1.24-1.2,2.72-2.13,4.42-2.79
			c1.71-0.66,3.57-0.98,5.58-0.98c2.05,0,4.21,0.3,6.47,0.9c2.27,0.6,4.37,1.43,6.31,2.49l-4.21,8.31c-1.01-0.84-2.11-1.5-3.32-2
			c-1.21-0.49-2.44-0.74-3.7-0.74c-1.19,0-2.24,0.32-3.16,0.96c-0.92,0.64-1.38,1.47-1.38,2.49c0,0.95,0.43,1.74,1.29,2.38
			c0.86,0.64,2.28,1.25,4.26,1.83c1.55,0.44,3.03,0.94,4.45,1.5c1.42,0.57,2.68,1.29,3.78,2.16c1.1,0.87,1.98,1.97,2.64,3.28
			c0.67,1.31,1,2.93,1,4.87c0,2.55-0.36,4.76-1.08,6.62c-0.72,1.86-1.76,3.35-3.13,4.48c-1.73,1.39-3.57,2.38-5.53,2.98
			c-1.96,0.6-3.98,0.9-6.07,0.9c-2.52,0-5-0.41-7.44-1.23C193.55,57.9,191.29,56.75,189.2,55.25z"/>
		<path class="st0" d="M219.52,58.86l15.64-41.23h11.54l15.32,41.23h-11.27l-2.64-7.16h-14.57l-2.81,7.16H219.52z M230.04,12.98
			c0-1.28,0.18-2.4,0.54-3.36c0.36-0.97,0.82-1.79,1.38-2.46c0.56-0.67,1.2-1.18,1.92-1.53c0.72-0.35,1.46-0.52,2.21-0.52
			c0.65,0,1.37,0.1,2.16,0.3c0.79,0.2,1.59,0.41,2.4,0.63c0.81,0.22,1.58,0.43,2.32,0.63c0.74,0.2,1.36,0.3,1.86,0.3
			c0.54,0,0.96-0.14,1.27-0.41c0.31-0.27,0.6-0.79,0.89-1.56h4.59c-0.14,1.53-0.44,2.84-0.89,3.91c-0.45,1.08-1,1.97-1.65,2.68
			c-0.65,0.71-1.36,1.23-2.13,1.56c-0.77,0.33-1.56,0.49-2.35,0.49c-0.68,0-1.38-0.11-2.08-0.33s-1.4-0.45-2.1-0.68
			c-0.7-0.24-1.38-0.46-2.05-0.68c-0.67-0.22-1.32-0.33-1.97-0.33c-0.65,0-1.07,0.21-1.27,0.63c-0.2,0.42-0.39,0.88-0.57,1.39h-4.42
			c0-0.07-0.01-0.17-0.03-0.3C230.05,13.21,230.04,13.09,230.04,12.98z M236.46,43.5h8.79l-4.32-13.12h-0.11L236.46,43.5z"/>
		<path class="st0" d="M262.19,37.97c0-3.17,0.59-6.08,1.78-8.72c1.19-2.64,2.81-4.93,4.86-6.86c2.05-1.93,4.44-3.44,7.17-4.51
			c2.73-1.07,5.63-1.61,8.69-1.61c2.88,0,5.67,0.51,8.39,1.53c2.71,1.02,5.12,2.46,7.2,4.32c2.09,1.86,3.76,4.09,5.02,6.7
			c1.26,2.61,1.89,5.5,1.89,8.67c0,3.61-0.62,6.83-1.86,9.65c-1.24,2.83-2.89,5.2-4.94,7.14c-2.05,1.93-4.41,3.41-7.07,4.43
			c-2.66,1.02-5.43,1.53-8.31,1.53c-3.67,0-6.92-0.63-9.76-1.89c-2.84-1.26-5.23-2.93-7.18-5c-1.94-2.08-3.41-4.46-4.4-7.14
			C262.69,43.52,262.19,40.78,262.19,37.97z M273.2,37.54c0,1.75,0.3,3.38,0.89,4.89c0.59,1.51,1.41,2.82,2.45,3.91
			c1.04,1.09,2.27,1.95,3.67,2.57c1.4,0.62,2.89,0.93,4.48,0.93c1.62,0,3.13-0.32,4.53-0.96c1.4-0.64,2.62-1.51,3.64-2.62
			c1.03-1.11,1.83-2.41,2.43-3.91c0.59-1.49,0.89-3.1,0.89-4.81c0-1.46-0.32-2.84-0.94-4.16c-0.63-1.31-1.47-2.47-2.51-3.47
			c-1.04-1-2.27-1.8-3.67-2.38c-1.4-0.58-2.88-0.88-4.42-0.88c-1.48,0-2.9,0.29-4.29,0.88c-1.38,0.58-2.61,1.37-3.67,2.35
			c-1.06,0.98-1.91,2.13-2.54,3.45C273.51,34.64,273.2,36.04,273.2,37.54z"/>
		<path class="st0" d="M344.84,17.63c2.27,0,4.3,0.29,6.1,0.87c1.8,0.58,3.33,1.44,4.59,2.57c1.26,1.13,2.22,2.54,2.89,4.24
			c0.67,1.7,1,3.66,1,5.88c0,4.7-1.2,8.21-3.59,10.53c-2.39,2.32-5.91,3.47-10.55,3.47h-6.26v13.67h-10.57V17.63H344.84z
			 M339.01,36.55h2.27c0.93,0,1.83-0.04,2.7-0.11c0.86-0.07,1.62-0.27,2.27-0.6c0.65-0.33,1.17-0.83,1.56-1.5
			c0.4-0.67,0.59-1.61,0.59-2.82c0-1.31-0.21-2.32-0.62-3.04c-0.41-0.71-0.98-1.23-1.7-1.56c-0.72-0.33-1.56-0.52-2.54-0.57
			c-0.97-0.05-2-0.08-3.07-0.08h-1.46V36.55z"/>
		<path class="st0" d="M370.68,17.63h11.54l15.32,41.23h-11.28l-2.64-7.16h-14.57l-2.81,7.16h-11.22L370.68,17.63z M371.97,43.5
			h8.79l-4.32-13.12h-0.11L371.97,43.5z"/>
		<path class="st0" d="M399.54,17.63h10.57v22.09c0,1.31,0.06,2.62,0.19,3.91c0.13,1.29,0.43,2.45,0.92,3.47
			c0.49,1.02,1.2,1.85,2.16,2.49c0.95,0.64,2.26,0.96,3.91,0.96c1.62,0,2.9-0.31,3.86-0.93c0.95-0.62,1.67-1.43,2.16-2.43
			c0.49-1,0.8-2.15,0.94-3.44c0.14-1.29,0.22-2.62,0.22-3.96V17.63h10.57v23.68c0,2.41-0.13,4.44-0.38,6.1
			c-0.25,1.66-0.72,3.18-1.4,4.57c-1.19,2.41-3.14,4.34-5.85,5.8c-2.72,1.46-6.09,2.19-10.11,2.19c-1.08,0-2.21-0.06-3.4-0.19
			c-1.19-0.13-2.37-0.36-3.56-0.71c-1.19-0.35-2.34-0.82-3.45-1.42c-1.12-0.6-2.14-1.36-3.07-2.27c-0.79-0.8-1.47-1.66-2.02-2.57
			c-0.56-0.91-1-1.93-1.32-3.06c-0.32-1.13-0.56-2.38-0.7-3.75c-0.14-1.37-0.22-2.93-0.22-4.68V17.63z"/>
		<path class="st0" d="M440.65,58.86V17.63h10.57v32.15h12.68v9.08H440.65z"/>
		<path class="st0" d="M462.93,37.97c0-3.17,0.59-6.08,1.78-8.72c1.19-2.64,2.81-4.93,4.86-6.86c2.05-1.93,4.44-3.44,7.17-4.51
			c2.73-1.07,5.63-1.61,8.69-1.61c2.88,0,5.67,0.51,8.39,1.53c2.71,1.02,5.12,2.46,7.2,4.32c2.09,1.86,3.76,4.09,5.02,6.7
			c1.26,2.61,1.89,5.5,1.89,8.67c0,3.61-0.62,6.83-1.86,9.65c-1.24,2.83-2.89,5.2-4.94,7.14c-2.05,1.93-4.41,3.41-7.07,4.43
			c-2.66,1.02-5.43,1.53-8.31,1.53c-3.67,0-6.92-0.63-9.76-1.89c-2.84-1.26-5.23-2.93-7.18-5c-1.94-2.08-3.41-4.46-4.4-7.14
			C463.42,43.52,462.93,40.78,462.93,37.97z M473.93,37.54c0,1.75,0.3,3.38,0.89,4.89c0.59,1.51,1.41,2.82,2.45,3.91
			c1.04,1.09,2.27,1.95,3.67,2.57c1.4,0.62,2.89,0.93,4.48,0.93c1.62,0,3.13-0.32,4.53-0.96c1.4-0.64,2.62-1.51,3.64-2.62
			c1.03-1.11,1.83-2.41,2.43-3.91c0.59-1.49,0.89-3.1,0.89-4.81c0-1.46-0.32-2.84-0.94-4.16c-0.63-1.31-1.47-2.47-2.51-3.47
			c-1.04-1-2.27-1.8-3.67-2.38c-1.4-0.58-2.88-0.88-4.42-0.88c-1.48,0-2.9,0.29-4.29,0.88c-1.38,0.58-2.61,1.37-3.67,2.35
			c-1.06,0.98-1.91,2.13-2.54,3.45C474.25,34.64,473.93,36.04,473.93,37.54z"/>
	</g>
	<g>
		<path class="st0" d="M188.32,83.12c0-1.77,0.28-3.37,0.84-4.79c0.56-1.43,1.34-2.64,2.34-3.65c1-1.01,2.21-1.78,3.61-2.32
			c1.4-0.54,2.94-0.81,4.61-0.81c2.17,0,4.07,0.5,5.69,1.5c1.62,1,2.88,2.51,3.79,4.52l-5.18,2.22c-0.41-1.08-1-1.92-1.78-2.52
			c-0.78-0.6-1.7-0.9-2.76-0.9c-0.97,0-1.79,0.22-2.48,0.66c-0.69,0.44-1.25,0.99-1.7,1.65c-0.45,0.67-0.77,1.4-0.98,2.2
			c-0.2,0.8-0.31,1.56-0.31,2.28c0,0.7,0.11,1.45,0.32,2.25c0.21,0.8,0.54,1.53,0.99,2.18c0.45,0.66,1.02,1.2,1.71,1.64
			c0.7,0.44,1.54,0.66,2.52,0.66c1.28,0,2.31-0.33,3.08-1c0.77-0.67,1.21-1.58,1.32-2.74h-4.46v-4.39h10.84
			c-0.02,1.33-0.1,2.5-0.24,3.49c-0.14,1-0.34,1.83-0.6,2.5c-0.78,2.07-2.01,3.71-3.69,4.92c-1.68,1.21-3.78,1.81-6.29,1.81
			c-1.64,0-3.14-0.27-4.52-0.81c-1.38-0.54-2.56-1.31-3.54-2.3c-0.99-0.99-1.76-2.18-2.31-3.58
			C188.6,86.38,188.32,84.83,188.32,83.12z"/>
		<path class="st0" d="M211.23,82.86c0-1.65,0.31-3.17,0.92-4.55c0.61-1.38,1.45-2.57,2.51-3.58c1.06-1.01,2.29-1.79,3.71-2.35
			c1.41-0.56,2.91-0.84,4.49-0.84c1.49,0,2.93,0.27,4.33,0.8c1.4,0.53,2.64,1.28,3.72,2.25c1.08,0.97,1.94,2.13,2.59,3.49
			c0.65,1.36,0.98,2.87,0.98,4.52c0,1.88-0.32,3.56-0.96,5.03c-0.64,1.47-1.49,2.71-2.55,3.72c-1.06,1.01-2.28,1.78-3.65,2.31
			c-1.38,0.53-2.81,0.8-4.29,0.8c-1.9,0-3.58-0.33-5.05-0.98c-1.47-0.66-2.7-1.53-3.71-2.61c-1-1.08-1.76-2.32-2.27-3.72
			C211.49,85.75,211.23,84.32,211.23,82.86z M216.92,82.63c0,0.91,0.15,1.76,0.46,2.55c0.31,0.79,0.73,1.47,1.27,2.04
			c0.54,0.57,1.17,1.02,1.9,1.34c0.72,0.32,1.5,0.48,2.31,0.48c0.84,0,1.62-0.17,2.34-0.5c0.72-0.33,1.35-0.79,1.88-1.37
			c0.53-0.58,0.95-1.26,1.25-2.04c0.31-0.78,0.46-1.62,0.46-2.51c0-0.76-0.16-1.48-0.49-2.17c-0.33-0.68-0.76-1.29-1.3-1.81
			c-0.54-0.52-1.17-0.94-1.9-1.24c-0.72-0.3-1.49-0.46-2.29-0.46c-0.76,0-1.5,0.15-2.22,0.46c-0.72,0.3-1.35,0.71-1.9,1.23
			c-0.55,0.51-0.99,1.11-1.31,1.8C217.08,81.12,216.92,81.85,216.92,82.63z"/>
		<path class="st0" d="M233.92,72.25h5.94l5.07,13.06l5.1-13.06h5.94L247,93.75h-4.24L233.92,72.25z"/>
		<path class="st0" d="M268.74,72.25v4.73h-6.49v3.59h6.16v4.73h-6.16v3.71h6.49v4.73h-11.96v-21.5H268.74z"/>
		<path class="st0" d="M271.55,93.75v-21.5h8.25c1.06,0,2.03,0.14,2.91,0.41c0.88,0.28,1.64,0.68,2.29,1.23
			c0.64,0.54,1.14,1.23,1.49,2.05c0.35,0.83,0.53,1.8,0.53,2.92c0,0.78-0.11,1.51-0.32,2.2c-0.21,0.68-0.52,1.29-0.92,1.82
			c-0.4,0.53-0.88,0.97-1.45,1.33c-0.57,0.35-1.2,0.59-1.91,0.73l6.61,8.81h-6.8l-5.16-8.27h-0.06v8.27H271.55z M277.01,81.89h0.47
			c1.34,0,2.31-0.22,2.93-0.66c0.61-0.44,0.92-1.11,0.92-2.02c0-0.91-0.3-1.59-0.91-2.02c-0.6-0.44-1.58-0.66-2.94-0.66h-0.47V81.89
			z"/>
		<path class="st0" d="M295.41,72.25l10.01,13.15h0.06V72.25h5.46v21.5h-5.46l-10.01-13.17h-0.06v13.17h-5.46v-21.5H295.41z"/>
		<path class="st0" d="M312.89,82.86c0-1.65,0.31-3.17,0.92-4.55c0.61-1.38,1.45-2.57,2.51-3.58c1.06-1.01,2.29-1.79,3.71-2.35
			c1.41-0.56,2.91-0.84,4.49-0.84c1.49,0,2.93,0.27,4.33,0.8c1.4,0.53,2.64,1.28,3.72,2.25c1.08,0.97,1.94,2.13,2.59,3.49
			c0.65,1.36,0.98,2.87,0.98,4.52c0,1.88-0.32,3.56-0.96,5.03c-0.64,1.47-1.49,2.71-2.55,3.72c-1.06,1.01-2.28,1.78-3.65,2.31
			c-1.38,0.53-2.81,0.8-4.29,0.8c-1.9,0-3.58-0.33-5.05-0.98s-2.7-1.53-3.71-2.61c-1-1.08-1.76-2.32-2.27-3.72
			C313.14,85.75,312.89,84.32,312.89,82.86z M318.57,82.63c0,0.91,0.15,1.76,0.46,2.55c0.31,0.79,0.73,1.47,1.27,2.04
			c0.54,0.57,1.17,1.02,1.9,1.34c0.72,0.32,1.5,0.48,2.31,0.48c0.84,0,1.62-0.17,2.34-0.5c0.72-0.33,1.35-0.79,1.88-1.37
			c0.53-0.58,0.95-1.26,1.25-2.04c0.31-0.78,0.46-1.62,0.46-2.51c0-0.76-0.16-1.48-0.49-2.17c-0.33-0.68-0.76-1.29-1.3-1.81
			c-0.54-0.52-1.17-0.94-1.9-1.24c-0.72-0.3-1.49-0.46-2.29-0.46c-0.76,0-1.5,0.15-2.22,0.46c-0.72,0.3-1.35,0.71-1.9,1.23
			c-0.55,0.51-0.98,1.11-1.31,1.8C318.74,81.12,318.57,81.85,318.57,82.63z"/>
		<path class="st0" d="M347.12,93.75v-21.5h7.8c1.47,0,2.85,0.28,4.14,0.84c1.29,0.56,2.42,1.33,3.37,2.31
			c0.96,0.98,1.71,2.12,2.27,3.42c0.56,1.3,0.84,2.69,0.84,4.18c0,1.48-0.28,2.88-0.84,4.18c-0.56,1.3-1.31,2.44-2.27,3.42
			c-0.96,0.98-2.09,1.75-3.39,2.31c-1.3,0.56-2.69,0.84-4.18,0.84H347.12z M353.39,89.02c0.78,0,1.37-0.03,1.76-0.1
			c0.39-0.07,0.76-0.17,1.11-0.3c0.48-0.17,0.94-0.4,1.38-0.7c0.44-0.29,0.82-0.67,1.14-1.13c0.33-0.46,0.59-0.99,0.78-1.61
			c0.2-0.62,0.29-1.34,0.29-2.18c0-0.97-0.15-1.83-0.45-2.58c-0.3-0.75-0.71-1.38-1.24-1.88c-0.53-0.5-1.16-0.89-1.88-1.15
			c-0.72-0.27-1.51-0.4-2.34-0.4h-1.37v12.03H353.39z"/>
		<path class="st0" d="M366.46,82.86c0-1.65,0.31-3.17,0.92-4.55c0.61-1.38,1.45-2.57,2.51-3.58c1.06-1.01,2.29-1.79,3.71-2.35
			c1.41-0.56,2.91-0.84,4.49-0.84c1.49,0,2.93,0.27,4.33,0.8c1.4,0.53,2.64,1.28,3.72,2.25c1.08,0.97,1.94,2.13,2.59,3.49
			c0.65,1.36,0.98,2.87,0.98,4.52c0,1.88-0.32,3.56-0.96,5.03c-0.64,1.47-1.49,2.71-2.55,3.72c-1.06,1.01-2.28,1.78-3.65,2.31
			c-1.38,0.53-2.81,0.8-4.29,0.8c-1.9,0-3.58-0.33-5.05-0.98c-1.47-0.66-2.7-1.53-3.71-2.61c-1-1.08-1.76-2.32-2.27-3.72
			C366.71,85.75,366.46,84.32,366.46,82.86z M372.15,82.63c0,0.91,0.15,1.76,0.46,2.55c0.31,0.79,0.73,1.47,1.27,2.04
			c0.54,0.57,1.17,1.02,1.9,1.34c0.72,0.32,1.5,0.48,2.31,0.48c0.84,0,1.62-0.17,2.34-0.5c0.72-0.33,1.35-0.79,1.88-1.37
			c0.53-0.58,0.95-1.26,1.25-2.04c0.31-0.78,0.46-1.62,0.46-2.51c0-0.76-0.16-1.48-0.49-2.17c-0.33-0.68-0.76-1.29-1.3-1.81
			c-0.54-0.52-1.17-0.94-1.9-1.24c-0.72-0.3-1.49-0.46-2.29-0.46c-0.76,0-1.5,0.15-2.22,0.46c-0.72,0.3-1.35,0.71-1.9,1.23
			s-0.98,1.11-1.31,1.8C372.31,81.12,372.15,81.85,372.15,82.63z"/>
		<path class="st0" d="M412.65,72.25v4.73h-6.49v3.59h6.16v4.73h-6.16v3.71h6.49v4.73h-11.96v-21.5H412.65z"/>
		<path class="st0" d="M414.51,91.87l2.34-4.51c0.89,0.8,1.72,1.37,2.49,1.71c0.77,0.34,1.55,0.51,2.33,0.51
			c0.78,0,1.42-0.19,1.92-0.58c0.5-0.39,0.75-0.92,0.75-1.58c0-0.4-0.12-0.73-0.35-1c-0.23-0.27-0.52-0.49-0.86-0.67
			c-0.34-0.18-0.71-0.33-1.09-0.46c-0.38-0.12-0.72-0.23-1.02-0.33c-0.69-0.23-1.38-0.46-2.06-0.68c-0.69-0.23-1.3-0.55-1.83-0.96
			c-0.53-0.41-0.96-0.96-1.3-1.65c-0.33-0.69-0.5-1.62-0.5-2.78c0-1.1,0.18-2.1,0.54-2.98c0.36-0.88,0.86-1.64,1.51-2.27
			c0.64-0.63,1.4-1.11,2.29-1.45c0.88-0.34,1.84-0.51,2.88-0.51c1.06,0,2.17,0.16,3.34,0.47c1.17,0.31,2.26,0.75,3.26,1.3L427,77.78
			c-0.52-0.44-1.09-0.78-1.71-1.04c-0.62-0.26-1.26-0.38-1.91-0.38c-0.61,0-1.16,0.17-1.63,0.5c-0.47,0.33-0.71,0.77-0.71,1.3
			c0,0.49,0.22,0.91,0.67,1.24c0.45,0.33,1.18,0.65,2.2,0.96c0.8,0.23,1.57,0.49,2.3,0.78c0.73,0.29,1.38,0.67,1.95,1.13
			c0.57,0.46,1.02,1.03,1.37,1.71c0.34,0.68,0.52,1.53,0.52,2.54c0,1.33-0.19,2.48-0.56,3.45c-0.37,0.97-0.91,1.75-1.62,2.34
			c-0.89,0.72-1.84,1.24-2.86,1.55c-1.01,0.31-2.06,0.47-3.14,0.47c-1.3,0-2.58-0.21-3.85-0.64
			C416.76,93.25,415.59,92.65,414.51,91.87z"/>
		<path class="st0" d="M429.95,72.25h14.49v4.73h-4.52v16.77h-5.46V76.98h-4.52V72.25z"/>
		<path class="st0" d="M450.39,72.25h5.96l7.92,21.5h-5.83l-1.37-3.74h-7.53l-1.45,3.74h-5.8L450.39,72.25z M451.05,85.74h4.54
			l-2.23-6.84h-0.06L451.05,85.74z"/>
		<path class="st0" d="M465.41,93.75v-21.5h7.8c1.47,0,2.85,0.28,4.14,0.84c1.29,0.56,2.42,1.33,3.37,2.31
			c0.96,0.98,1.71,2.12,2.27,3.42c0.56,1.3,0.84,2.69,0.84,4.18c0,1.48-0.28,2.88-0.84,4.18c-0.56,1.3-1.31,2.44-2.27,3.42
			c-0.96,0.98-2.09,1.75-3.39,2.31c-1.3,0.56-2.69,0.84-4.18,0.84H465.41z M471.68,89.02c0.78,0,1.37-0.03,1.76-0.1
			c0.39-0.07,0.76-0.17,1.11-0.3c0.48-0.17,0.94-0.4,1.38-0.7c0.44-0.29,0.82-0.67,1.14-1.13c0.33-0.46,0.59-0.99,0.78-1.61
			c0.2-0.62,0.29-1.34,0.29-2.18c0-0.97-0.15-1.83-0.45-2.58c-0.3-0.75-0.71-1.38-1.24-1.88c-0.53-0.5-1.16-0.89-1.88-1.15
			c-0.72-0.27-1.51-0.4-2.34-0.4h-1.37v12.03H471.68z"/>
		<path class="st0" d="M484.75,82.86c0-1.65,0.31-3.17,0.92-4.55c0.61-1.38,1.45-2.57,2.51-3.58c1.06-1.01,2.29-1.79,3.71-2.35
			c1.41-0.56,2.91-0.84,4.49-0.84c1.49,0,2.93,0.27,4.33,0.8c1.4,0.53,2.64,1.28,3.72,2.25c1.08,0.97,1.94,2.13,2.59,3.49
			c0.65,1.36,0.98,2.87,0.98,4.52c0,1.88-0.32,3.56-0.96,5.03c-0.64,1.47-1.49,2.71-2.55,3.72c-1.06,1.01-2.28,1.78-3.65,2.31
			c-1.38,0.53-2.81,0.8-4.29,0.8c-1.9,0-3.58-0.33-5.05-0.98c-1.47-0.66-2.7-1.53-3.71-2.61c-1-1.08-1.76-2.32-2.27-3.72
			C485.01,85.75,484.75,84.32,484.75,82.86z M490.44,82.63c0,0.91,0.15,1.76,0.46,2.55c0.31,0.79,0.73,1.47,1.27,2.04
			c0.54,0.57,1.17,1.02,1.9,1.34c0.72,0.32,1.5,0.48,2.31,0.48c0.84,0,1.62-0.17,2.34-0.5c0.72-0.33,1.35-0.79,1.88-1.37
			c0.53-0.58,0.95-1.26,1.25-2.04c0.31-0.78,0.46-1.62,0.46-2.51c0-0.76-0.16-1.48-0.49-2.17c-0.33-0.68-0.76-1.29-1.3-1.81
			c-0.54-0.52-1.17-0.94-1.9-1.24c-0.72-0.3-1.49-0.46-2.29-0.46c-0.76,0-1.5,0.15-2.22,0.46c-0.72,0.3-1.35,0.71-1.9,1.23
			s-0.98,1.11-1.31,1.8C490.6,81.12,490.44,81.85,490.44,82.63z"/>
	</g>
</g>
</svg>
