<?xml version="1.0" encoding="utf-8"?>
<!-- Generator: Adobe Illustrator 24.1.3, SVG Export Plug-In . SVG Version: 6.00 Build 0)  -->
<svg version="1.1" id="Layer_1" xmlns="http://www.w3.org/2000/svg" xmlns:xlink="http://www.w3.org/1999/xlink" x="0px" y="0px"
	 viewBox="0 0 512 512" style="enable-background:new 0 0 512 512;" xml:space="preserve">
<style type="text/css">
	.st0{fill:#502777;}
</style>
<path class="st0" d="M218.47,259.15c6.24-4.19,12.35-8.28,18.45-12.39c15.74-10.59,31.45-21.22,47.23-31.76
	c1.59-1.06,1.84-1.86,1.12-3.69c-7.29-18.39-5.69-35.96,5.14-52.61c0.35-0.54,0.69-1.08,1.15-1.78
	c-10.44-10.01-20.81-19.96-31.34-30.05c-15.02,11.28-31.65,14.85-49.76,9.82c-12.85-3.56-23.03-11.15-30.44-22.24
	c-14.86-22.24-11.45-52.58,7.79-70.43c20.2-18.74,50.3-20.12,71.74-3.54c20.79,16.08,29.51,48.5,10.9,75.7
	c10.44,10.01,20.91,20.07,31.37,30.1c26.29-20.13,61.8-12.23,78.55,11.22c16.45,23.04,13.06,54.44-8.04,73.38
	c-20.86,18.72-55.9,19.61-78.03-4.84c-1.58,1.02-3.21,2.05-4.82,3.12c-20.08,13.51-40.13,27.07-60.26,40.51
	c-2.01,1.35-2.33,2.35-1.35,4.63c14.11,32.54-6.62,70.11-41.66,75.68c-30,4.77-57.71-14.66-62.98-44.77
	c-5.6-31.95,16.62-59.44,45.55-63.68c18.52-2.71,34.56,2.59,47.87,15.87C217.16,257.92,217.7,258.42,218.47,259.15z"/>
<path class="st0" d="M460.68,417.33c-0.18,1.33-0.34,2.43-0.45,3.25c3.75-1.33,7.43-3.23,11.33-3.91
	c8.87-1.54,17.38-0.52,23.95,6.54c6.78,7.28,7.54,18.85,2.07,28.58c-5.51,9.8-14.31,14.24-25.19,14.9
	c-7.73,0.47-14.94-1.18-21.32-6.72c-1.12,4.71-2.17,9.1-3.2,13.48c-0.54,2.3-0.97,4.64-1.64,6.9c-0.19,0.65-1.07,1.55-1.64,1.56
	c-6.37,0.11-12.73,0.07-19.3,0.07c0.1-0.89,0.1-1.61,0.25-2.29c4.66-20.11,9.37-40.21,13.97-60.34c0.37-1.63,0.98-2.08,2.57-2.06
	C448.21,417.38,454.33,417.33,460.68,417.33z M468.85,430.4c-8.73,0-14.67,6.16-13.66,14.2c0.38,3.05,1.88,5.35,4.78,6.62
	c3.19,1.39,6.48,1.59,9.84,0.88c5.86-1.24,10.22-7.51,9.54-13.66C478.76,433.28,475,430.4,468.85,430.4z"/>
<path class="st0" d="M12,465.39c4.07-17.99,8.06-35.58,12.05-53.17c0.69-3.02,1.3-6.07,2.14-9.05c0.19-0.68,1.17-1.62,1.8-1.62
	c14.97-0.04,29.95-0.03,44.92,0.17c2.47,0.03,5.04,0.74,7.38,1.61c9.45,3.52,13.38,12.98,9.93,23.47
	c-2.98,9.06-10.5,14.83-20.96,15.35c-9.06,0.45-18.15,0.37-27.22,0.36c-2.02,0-2.82,0.57-3.23,2.57c-1.3,6.23-2.79,12.43-4.32,18.61
	c-0.16,0.66-1.02,1.62-1.57,1.63C26.04,465.43,19.18,465.39,12,465.39z M42.8,428.06c7.05,0,13.74,0.22,20.4-0.09
	c3.6-0.16,6.34-4,6.05-7.45c-0.27-3.22-2.49-4.83-6.73-4.85c-4.98-0.02-9.97-0.05-14.95,0.05c-0.77,0.02-2.05,0.59-2.2,1.15
	C44.39,420.55,43.64,424.3,42.8,428.06z"/>
<path class="st0" d="M267.08,422.01c1.44-5.98,2.95-11.55,4.05-17.2c0.53-2.7,1.62-3.53,4.32-3.4c4.81,0.23,9.65,0.07,14.47,0.07
	c0.88,0,1.76,0,2.89,0c-0.16,1.03-0.22,1.75-0.38,2.44c-4.62,19.78-9.28,39.56-13.84,59.36c-0.38,1.63-1,2.09-2.59,2.07
	c-6.12-0.08-12.25-0.03-18.6-0.03c0.12-1.16,0.21-2.15,0.35-3.46c-0.8,0.44-1.4,0.78-2.01,1.1c-9.3,4.95-18.77,5.43-28.13,0.47
	c-9.42-4.99-13.18-16.98-9.02-28.29c4.3-11.69,13.3-17.37,25.26-18.77C252.11,415.38,259.97,416.59,267.08,422.01z M263.03,439.55
	c0.14-3.34-0.93-6.13-3.84-7.97c-6.22-3.93-16.05-1.1-19.24,5.5c-4.09,8.47,0.87,16.25,10.23,16.04
	C257.6,452.95,262.98,447.27,263.03,439.55z"/>
<path class="st0" d="M357.61,452.2c-2.09,4.43-5.37,7.44-9.51,9.65c-7.06,3.77-14.75,4.88-22.54,4.77
	c-5.26-0.07-10.64-0.65-15.73-1.93c-9.53-2.39-16.2-8.2-17.74-18.37c-1.49-9.84,2.54-17.54,10.32-23.4
	c4.88-3.68,10.49-5.62,16.52-6.3c8.34-0.95,16.71-1.17,24.71,1.74c13.25,4.81,17.64,14.32,17.08,27.12c-15.49,0-30.99,0-46.65,0
	c0.47,3.77,2.33,6.23,5.45,7.56c5.13,2.19,10.15,2.1,14.88-1.26c0.75-0.53,1.75-1.09,2.6-1.05c6.53,0.28,13.06,0.71,19.58,1.11
	C356.88,451.85,357.16,452.03,357.61,452.2z M315.71,436.12c8.03,0,16.01,0,24.05,0c-1.2-4.81-5.29-7.3-11.74-7.3
	C321.63,428.81,316.82,431.61,315.71,436.12z"/>
<path class="st0" d="M172.25,466.73c-5.39-0.19-11.8-0.88-18.03-3.26c-16.17-6.17-17.66-28.34-6.26-38.25
	c5.61-4.87,12.15-7.57,19.45-8.52c8.97-1.18,17.96-1.36,26.74,1.13c9.06,2.57,15.69,7.86,16.97,17.81
	c1.2,9.34-2.12,17.02-9.55,22.82C194.46,464,185.03,466.73,172.25,466.73z M177.34,428.83c-7.7-0.11-13.23,3.84-15.02,10.74
	c-1.77,6.83,2.07,13.05,8.95,13.89c2.77,0.34,5.76,0.13,8.47-0.56c6.21-1.57,10.3-8.25,9.46-14.78
	C188.46,432.37,184.08,428.93,177.34,428.83z"/>
<path class="st0" d="M427.45,431.97c-6.53,0.29-12.95,0.57-19.56,0.86c-0.66-3.64-3.41-4.75-6.56-5.11
	c-2.18-0.25-4.42-0.29-6.6-0.11c-2.54,0.21-4.54,1.91-4.37,3.55c0.26,2.48,2.34,2.94,4.28,3.28c4.98,0.89,10,1.61,14.97,2.53
	c2.24,0.41,4.51,0.91,6.61,1.74c8.9,3.5,10.7,14.93,3.36,21.21c-4.17,3.56-9.21,5.22-14.53,6c-9.12,1.34-18.27,1.6-27.26-0.72
	c-3.19-0.82-6.32-2.24-9.17-3.91c-3.79-2.22-5.38-5.96-5.63-10.69c7.08-0.29,14.06-0.59,21.23-0.88c0.95,3.6,3.76,4.76,7.01,4.97
	c2.66,0.17,5.36,0.15,8-0.15c1.74-0.2,2.95-1.55,2.88-3.44c-0.07-1.83-1.38-2.66-3.05-3.01c-5.52-1.14-11.05-2.18-16.54-3.46
	c-2.2-0.51-4.41-1.3-6.4-2.36c-7.33-3.9-8.92-12.7-2.99-18.51c2.52-2.47,5.94-4.54,9.32-5.51c10.19-2.92,20.63-2.92,31.03-0.88
	c1.82,0.36,3.59,1.11,5.28,1.9C423.96,421.69,427.25,425.54,427.45,431.97z"/>
<path class="st0" d="M89.41,465.3c3.74-16.23,7.38-32.03,11.03-47.88c6.88,0,13.57,0,20.58,0c-0.4,2.18-0.79,4.28-1.32,7.17
	c5.34-5.79,10.93-9.36,18.7-8.11c-1.43,6.18-2.82,12.2-4.26,18.42c-2.08-0.23-3.99-0.52-5.92-0.64c-7.43-0.45-11.01,2.03-12.85,9.16
	c-1.71,6.64-3.14,13.35-4.81,20c-0.18,0.72-1.07,1.78-1.65,1.79C102.57,465.35,96.2,465.3,89.41,465.3z"/>
</svg>
