<?xml version="1.0" encoding="utf-8"?>
<!-- Generator: Adobe Illustrator 24.1.3, SVG Export Plug-In . SVG Version: 6.00 Build 0)  -->
<svg version="1.1" id="Layer_1" xmlns="http://www.w3.org/2000/svg" xmlns:xlink="http://www.w3.org/1999/xlink" x="0px" y="0px"
	 viewBox="0 0 24 24" style="enable-background:new 0 0 24 24;" xml:space="preserve">
<style type="text/css">
	.st0{fill:#274FAE;}
</style>
<path class="st0" d="M19.99,2.5h-10c-0.83,0-1.5,0.67-1.5,1.5v1.5h-1.5c-0.83,0-1.5,0.67-1.5,1.5V8.5H4c-0.83,0-1.5,0.67-1.5,1.5v10
	c0,0.83,0.67,1.5,1.5,1.5h10c0.83,0,1.5-0.67,1.5-1.5V18.5h1.49c0.83,0,1.5-0.67,1.5-1.5v-1.5h1.5c0.83,0,1.5-0.67,1.5-1.5V4
	C21.49,3.18,20.82,2.5,19.99,2.5z M14,19.81c0,0.1-0.08,0.19-0.19,0.19H4.19C4.09,20,4,19.91,4,19.81v-9.63C4,10.08,4.09,10,4.19,10
	h1.3V17c0,0.83,0.67,1.5,1.5,1.5H14V19.81z M16.99,16.82c0,0.1-0.08,0.19-0.19,0.19H7.18c-0.1,0-0.19-0.08-0.19-0.19V7.19
	C6.99,7.09,7.08,7,7.18,7h1.31v7c0,0.83,0.67,1.5,1.5,1.5h7V16.82z M19.99,13.82c0,0.1-0.08,0.19-0.19,0.19h-9.63
	c-0.1,0-0.19-0.08-0.19-0.19V4.19c0-0.1,0.08-0.19,0.19-0.19h9.63c0.1,0,0.19,0.08,0.19,0.19V13.82z"/>
</svg>
